<?xml version="1.0" encoding="UTF-8"?>
<svg version="1.1" xmlns="http://www.w3.org/2000/svg" width="334" height="352">
<path d="M0 0 C110.22 0 220.44 0 334 0 C334 116.16 334 232.32 334 352 C223.78 352 113.56 352 0 352 C0 235.84 0 119.68 0 0 Z " fill="#FBFAF9" transform="translate(0,0)"/>
<path d="M0 0 C22.33311287 18.65471781 38.34634468 42.66303834 42 72 C42.27927809 76.25486447 42.3341955 80.48683397 42.3125 84.75 C42.30831055 85.88453613 42.30412109 87.01907227 42.29980469 88.18798828 C42.18013331 97.12896813 41.30674472 105.35220378 39 114 C38.73316406 115.01320312 38.46632813 116.02640625 38.19140625 117.0703125 C35.55487414 125.85875287 31.3497438 133.95651122 27 142 C26.47792969 142.969375 25.95585937 143.93875 25.41796875 144.9375 C11.08675194 169.31870936 -14.24807962 185.61014503 -41 193 C-42.83655151 193.51228149 -42.83655151 193.51228149 -44.71020508 194.03491211 C-48.76319751 195.03923161 -52.70871693 195.32218184 -56.875 195.3359375 C-57.60259521 195.3425943 -58.33019043 195.3492511 -59.07983398 195.35610962 C-60.61260482 195.36616776 -62.14541885 195.37092878 -63.67822266 195.37060547 C-65.96725236 195.37493802 -68.25428407 195.41121385 -70.54296875 195.44921875 C-99.66874822 195.67213916 -123.82548444 182.42565632 -144.5625 162.8125 C-154.40295038 152.65574943 -161.25877123 140.82442574 -167 128 C-167.61488281 126.63681641 -167.61488281 126.63681641 -168.2421875 125.24609375 C-177.72740127 101.75364569 -178.10742228 73.47523824 -169.25 49.75 C-168.52822458 48.15360259 -167.77385276 46.57181308 -167 45 C-166.40475764 43.73446448 -165.8097252 42.46883021 -165.21484375 41.203125 C-151.97382716 13.47323026 -130.37616818 -5.80920775 -101.59375 -16.9296875 C-67.39916528 -28.28884749 -28.75362949 -21.36347952 0 0 Z " fill="#4951DB" transform="translate(233,46)"/>
<path d="M0 0 C9.2290188 6.97069446 14.13829432 15.6315587 16.39453125 26.80859375 C16.80839682 31.39365968 16.83924467 35.94906731 16.828125 40.55078125 C16.83336685 41.83614777 16.8386087 43.12151428 16.8440094 44.4458313 C16.85287623 47.15034914 16.85059251 49.85457069 16.84057617 52.55908203 C16.82910368 55.98702211 16.84930302 59.41392927 16.87849331 62.84173393 C16.90148972 66.16146631 16.89437794 69.48097173 16.890625 72.80078125 C16.90185898 74.0116037 16.91309296 75.22242615 16.92466736 76.46994019 C16.84192041 86.7439748 15.09632728 97.21788228 8.76953125 105.62109375 C8.17914063 106.43191406 7.58875 107.24273437 6.98046875 108.078125 C6.45710938 108.64917969 5.93375 109.22023438 5.39453125 109.80859375 C4.73453125 109.80859375 4.07453125 109.80859375 3.39453125 109.80859375 C2.89953125 111.29359375 2.89953125 111.29359375 2.39453125 112.80859375 C-5.72929978 119.40358573 -15.57777134 123.59244149 -26.16015625 123.15625 C-38.85523221 121.35135901 -49.39312429 115.62909966 -57.60546875 105.80859375 C-59.15455469 103.5273032 -60.34592946 101.28268879 -61.60546875 98.80859375 C-62.16234375 97.79796875 -62.71921875 96.78734375 -63.29296875 95.74609375 C-65.47567658 90.86098574 -65.7310894 86.04635622 -65.75073242 80.74658203 C-65.75711227 79.57161163 -65.76349213 78.39664124 -65.77006531 77.18606567 C-65.77117813 75.92970306 -65.77229095 74.67334045 -65.7734375 73.37890625 C-65.7767659 72.07460663 -65.7800943 70.77030701 -65.78352356 69.42648315 C-65.78949328 66.67119519 -65.79136567 63.9159385 -65.79077148 61.16064453 C-65.79066995 57.64829869 -65.80432236 54.1361554 -65.82154369 50.6238575 C-65.83540484 47.25053772 -65.83475412 43.87725409 -65.8359375 40.50390625 C-65.84312302 39.2515921 -65.85030853 37.99927795 -65.85771179 36.70901489 C-65.82639487 24.68485633 -63.67673825 14.2684245 -55.1640625 5.2109375 C-39.18982293 -9.43013155 -18.60856645 -11.75123645 0 0 Z " fill="#FAF8F9" transform="translate(190.60546875,60.19140625)"/>
<path d="M0 0 C1.2065625 0.0309375 1.2065625 0.0309375 2.4375 0.0625 C3.62735041 2.44220082 3.59256652 3.99277174 3.6484375 6.6484375 C4.14416421 24.27205925 5.798488 39.72623277 18.40625 53.21875 C29.69498364 63.46544669 42.72392182 67.18686871 57.67578125 66.5703125 C70.11443611 65.57481991 82.18609353 58.99134025 90.4921875 49.78515625 C97.28215592 40.79500493 101.35255595 29.83274843 101.71875 18.578125 C101.75613281 17.56105469 101.79351562 16.54398438 101.83203125 15.49609375 C101.90286082 13.35808998 101.97316583 11.22006878 102.04296875 9.08203125 C102.08035156 8.07011719 102.11773437 7.05820313 102.15625 6.015625 C102.18654297 5.08911133 102.21683594 4.16259766 102.24804688 3.20800781 C102.4375 1.0625 102.4375 1.0625 103.4375 0.0625 C105.9375 -0.0625 105.9375 -0.0625 108.4375 0.0625 C110.00745805 1.63245805 109.56725956 3.18956919 109.5703125 5.3671875 C109.57264893 6.2555127 109.57498535 7.14383789 109.57739258 8.05908203 C109.55323897 12.72746003 109.51445222 17.39466888 109.4375 22.0625 C109.41236328 23.77179688 109.41236328 23.77179688 109.38671875 25.515625 C108.84936824 36.01698935 103.56831309 44.77250596 97.4375 53.0625 C96.98761719 53.67867187 96.53773438 54.29484375 96.07421875 54.9296875 C88.59977849 64.40433008 77.76108766 69.60154705 66.4375 73.0625 C61.9825 73.5575 61.9825 73.5575 57.4375 74.0625 C57.4375 82.6425 57.4375 91.2225 57.4375 100.0625 C65.24566924 100.35158529 65.24566924 100.35158529 73.05419922 100.63061523 C74.02373535 100.66872314 74.99327148 100.70683105 75.9921875 100.74609375 C76.98718262 100.78275146 77.98217773 100.81940918 79.00732422 100.85717773 C81.4375 101.0625 81.4375 101.0625 83.4375 102.0625 C83.480221 103.72861905 83.47813832 105.39632885 83.4375 107.0625 C81.69450612 108.80549388 79.29343748 108.19008682 76.92382812 108.19189453 C75.74590698 108.19504669 74.56798584 108.19819885 73.35437012 108.20144653 C72.07211548 108.1994223 70.78986084 108.19739807 69.46875 108.1953125 C68.16296997 108.19626923 66.85718994 108.19722595 65.51184082 108.19821167 C62.74437278 108.19968833 59.97693696 108.19753511 57.20947266 108.19287109 C53.65487351 108.18717381 50.10034986 108.19045298 46.54575348 108.19644356 C43.16591286 108.20091747 39.78609277 108.19778886 36.40625 108.1953125 C35.12399536 108.19733673 33.84174072 108.19936096 32.52062988 108.20144653 C30.75374817 108.19671829 30.75374817 108.19671829 28.95117188 108.19189453 C27.90828003 108.19109894 26.86538818 108.19030334 25.79089355 108.18948364 C23.4375 108.0625 23.4375 108.0625 22.4375 107.0625 C22.3125 104.5625 22.3125 104.5625 22.4375 102.0625 C23.4375 101.0625 23.4375 101.0625 25.84594727 100.94897461 C27.40913696 100.95682983 27.40913696 100.95682983 29.00390625 100.96484375 C30.01654541 100.96734131 31.02918457 100.96983887 32.07250977 100.97241211 C33.36858154 100.98151611 34.66465332 100.99062012 36 101 C40.104375 101.020625 44.20875 101.04125 48.4375 101.0625 C48.4375 91.8225 48.4375 82.5825 48.4375 73.0625 C45.4675 73.0625 42.4975 73.0625 39.4375 73.0625 C31.31103291 70.95632848 24.05384731 67.17914192 17.4375 62.0625 C16.75042969 61.53914063 16.06335938 61.01578125 15.35546875 60.4765625 C5.45760947 52.41444385 -1.54261447 40.72292013 -3.5625 28.0625 C-3.81947142 23.41329402 -3.79686974 18.77990522 -3.75 14.125 C-3.74935547 12.88169922 -3.74871094 11.63839844 -3.74804688 10.35742188 C-3.69752465 0.09018353 -3.69752465 0.09018353 0 0 Z " fill="#F6F6F9" transform="translate(113.5625,124.9375)"/>
<path d="M0 0 C1.32 0 2.64 0 4 0 C3.50725113 10.01922694 0.67509007 19.38546963 -2 29 C2.95 29 7.9 29 13 29 C14 34 14 34 12.5859375 36.515625 C11.85632813 37.41796875 11.12671875 38.3203125 10.375 39.25 C9.53744542 40.30834454 8.70022579 41.36695422 7.86328125 42.42578125 C7.17419678 43.28163818 7.17419678 43.28163818 6.47119141 44.15478516 C4.34404073 46.82272488 2.28473394 49.54074057 0.2199707 52.25708008 C-5.81711989 60.19893545 -11.91159753 68.09744601 -18 76 C-19.32 75.67 -20.64 75.34 -22 75 C-19.84190736 68.45368561 -17.59781538 61.94039115 -15.3125 55.4375 C-14.99216797 54.52419922 -14.67183594 53.61089844 -14.34179688 52.66992188 C-13.56181705 50.4463973 -12.78099722 48.22316742 -12 46 C-17.61 46 -23.22 46 -29 46 C-27.09677281 36.48386404 -20.36015036 29.05188372 -14.5390625 21.48046875 C-12.5375434 18.80562386 -10.70620772 16.04747414 -8.8984375 13.23828125 C-8.36629639 12.41465088 -7.83415527 11.59102051 -7.28588867 10.74243164 C-6.232317 9.09955502 -5.19047734 7.44908667 -4.16137695 5.79077148 C-3.67886475 5.03997314 -3.19635254 4.2891748 -2.69921875 3.515625 C-2.27471436 2.83790039 -1.85020996 2.16017578 -1.4128418 1.46191406 C-0.946604 0.97948242 -0.48036621 0.49705078 0 0 Z " fill="#4A4FDF" transform="translate(173,66)"/>
<path d="M0 0 C4.23301121 2.82200747 7.17159664 5.95228992 8.8125 10.875 C9.65287167 16.96169194 8.80464671 21.19606603 5.22265625 26.21484375 C2.11210074 29.87685508 -0.93754546 30.98962612 -5.5625 31.75 C-10.95707558 32.1615265 -14.58294793 30.79960264 -18.953125 27.5703125 C-22.86023054 23.90055449 -23.6551086 20.68904216 -23.875 15.375 C-23.62590206 10.44965428 -23.03813221 6.91570866 -19.734375 3.17578125 C-13.87641686 -1.750229 -7.0592864 -2.49151285 0 0 Z " fill="#1B1B1C" transform="translate(134.1875,261.125)"/>
<path d="M0 0 C2.536875 -0.04125 5.07375 -0.0825 7.6875 -0.125 C8.47729248 -0.14320801 9.26708496 -0.16141602 10.08081055 -0.18017578 C15.90566338 -0.2258378 19.29197336 0.63357868 23.8125 4.25 C27.12891931 8.4661419 26.5132302 13.53937286 26.46875 18.66015625 C25.8074543 23.37188812 23.73120003 27.01503997 20 30 C15.94910916 31.24950464 11.94720826 31.11033023 7.75 31.0625 C5.1925 31.041875 2.635 31.02125 0 31 C0 20.77 0 10.54 0 0 Z " fill="#171717" transform="translate(254,261)"/>
<path d="M0 0 C3.81082815 2.137352 7.22282649 4.76068651 8.69140625 8.9921875 C9.64289868 15.18291038 9.50010986 19.68948849 6 25 C1.47906022 29.18186929 -1.8338471 30.2759924 -8.015625 30.140625 C-12.4773869 29.82443715 -15.14216484 28.1623141 -18.3125 25.125 C-21.62095436 20.99804782 -21.90867057 17.13146689 -21.66796875 11.953125 C-20.570701 7.10204653 -17.7681754 4.11172855 -14 1 C-9.72774597 -1.13612702 -4.61454554 -0.71436161 0 0 Z " fill="#1C1C1C" transform="translate(111,302)"/>
<path d="M0 0 C2.97 0 5.94 0 9 0 C11.64 5.28 14.28 10.56 17 16 C18.93241047 11.10964131 18.93241047 11.10964131 20.85913086 6.21704102 C22.88888889 1.11111111 22.88888889 1.11111111 24 0 C27.3 0 30.6 0 34 0 C34 10.23 34 20.46 34 31 C31.69 31 29.38 31 27 31 C26.505 21.595 26.505 21.595 26 12 C24.02 16.95 22.04 21.9 20 27 C18.02 27 16.04 27 14 27 C13.36967867 25.79443396 12.7460503 24.58536811 12.125 23.375 C11.60292969 22.36566406 11.60292969 22.36566406 11.0703125 21.3359375 C9.83685333 18.64393537 8.93639185 15.80917555 8 13 C7.67 18.94 7.34 24.88 7 31 C4.69 31 2.38 31 0 31 C0 20.77 0 10.54 0 0 Z " fill="#1B1B1B" transform="translate(149,261)"/>
<path d="M0 0 C4.021875 -0.0928125 4.021875 -0.0928125 8.125 -0.1875 C8.95789551 -0.21481201 9.79079102 -0.24212402 10.64892578 -0.27026367 C15.50216616 -0.32411136 18.8010775 0.298824 23 3 C24.6124054 6.22481079 24.60679502 9.51415624 24 13 C22.56130936 15.39446415 20.99797988 17.00202012 19 19 C19.5053125 19.78246094 20.010625 20.56492187 20.53125 21.37109375 C21.1809375 22.38300781 21.830625 23.39492188 22.5 24.4375 C23.1496875 25.44683594 23.799375 26.45617187 24.46875 27.49609375 C26 30 26 30 26 31 C23.03 31 20.06 31 17 31 C16.16151196 29.54462432 15.32936066 28.08559627 14.5 26.625 C14.0359375 25.81289063 13.571875 25.00078125 13.09375 24.1640625 C12 22 12 22 12 20 C10.68 20 9.36 20 8 20 C8 23.63 8 27.26 8 31 C5.36 31 2.72 31 0 31 C0 20.77 0 10.54 0 0 Z " fill="#1F1E1F" transform="translate(82,261)"/>
<path d="M0 0 C1.98 0 3.96 0 6 0 C7.9765625 1.9765625 7.9765625 1.9765625 9.625 4.625 C10.17414063 5.48351562 10.72328125 6.34203125 11.2890625 7.2265625 C11.85367188 8.14179688 12.41828125 9.05703125 13 10 C14.98 12.97 14.98 12.97 17 16 C17.33 10.72 17.66 5.44 18 0 C19.98 0 21.96 0 24 0 C24 9.57 24 19.14 24 29 C21.69 29 19.38 29 17 29 C14.890625 26.76953125 14.890625 26.76953125 13.25 23.8125 C12.69828125 22.84957031 12.1465625 21.88664062 11.578125 20.89453125 C11.05734375 19.93933594 10.5365625 18.98414063 10 18 C9.01 16.35 8.02 14.7 7 13 C6.67 18.28 6.34 23.56 6 29 C4.02 29 2.04 29 0 29 C0 19.43 0 9.86 0 0 Z " fill="#161616" transform="translate(243,302)"/>
<path d="M0 0 C6.93 0 13.86 0 21 0 C21 1.98 21 3.96 21 6 C16.38 6 11.76 6 7 6 C7 7.98 7 9.96 7 12 C10.96 12 14.92 12 19 12 C19 13.98 19 15.96 19 18 C15.04 18 11.08 18 7 18 C7 20.31 7 22.62 7 25 C11.29 25 15.58 25 20 25 C20 26.98 20 28.96 20 31 C13.4 31 6.8 31 0 31 C0 20.77 0 10.54 0 0 Z " fill="#171717" transform="translate(227,261)"/>
<path d="M0 0 C2.64 0 5.28 0 8 0 C9.13382641 3.14272029 10.2553844 6.28969186 11.375 9.4375 C11.69210938 10.31599609 12.00921875 11.19449219 12.3359375 12.09960938 C14.31627398 17.68993422 15.82872686 23.18504295 17 29 C15.02 29 13.04 29 11 29 C10.34 27.02 9.68 25.04 9 23 C5.37 23 1.74 23 -2 23 C-2.33 24.98 -2.66 26.96 -3 29 C-5.31 29 -7.62 29 -10 29 C-9.36576482 25.4360307 -8.43264046 22.16669362 -7.1875 18.76953125 C-6.83429688 17.80208984 -6.48109375 16.83464844 -6.1171875 15.83789062 C-5.56417969 14.34032227 -5.56417969 14.34032227 -5 12.8125 C-4.63132813 11.80251953 -4.26265625 10.79253906 -3.8828125 9.75195312 C-1.15472274 2.30944549 -1.15472274 2.30944549 0 0 Z " fill="#1C1C1C" transform="translate(207,302)"/>
<path d="M0 0 C1.98 0 3.96 0 6 0 C6 3.96 6 7.92 6 12 C9.96 12 13.92 12 18 12 C18 8.04 18 4.08 18 0 C19.98 0 21.96 0 24 0 C24 9.57 24 19.14 24 29 C22.02 29 20.04 29 18 29 C18 25.37 18 21.74 18 18 C14.04 18 10.08 18 6 18 C6 21.63 6 25.26 6 29 C4.02 29 2.04 29 0 29 C0 19.43 0 9.86 0 0 Z " fill="#151516" transform="translate(168,302)"/>
<path d="M0 0 C2.82641951 1.59077312 5.0356017 3.41208961 7 6 C7 6.66 7 7.32 7 8 C5.02 8.66 3.04 9.32 1 10 C0.67 9.505 0.34 9.01 0 8.5 C-3.17572747 6.11820439 -6.10246066 6.80831774 -10 7 C-12.45882911 10.68824367 -12.8293204 14.71799875 -12 19 C-9.99820005 22.16984261 -9.99820005 22.16984261 -7 24 C-3.86248027 24 -2.5545118 23.47802742 -0.1875 21.4375 C0.4003125 20.7259375 0.4003125 20.7259375 1 20 C2.65 20.66 4.3 21.32 6 22 C6 22.99 6 23.98 6 25 C1.52668855 29.11061052 -1.83880052 30.30843676 -7.9375 30.21875 C-12.07724579 29.77968605 -15.00776398 28.06066609 -17.8125 25.0625 C-20.62877682 20.17107183 -20.6251613 14.49620979 -20 9 C-15.77547023 0.39447639 -9.1291846 -1.65393216 0 0 Z " fill="#1D1D1D" transform="translate(156,302)"/>
<path d="M0 0 C6.6 0 13.2 0 20 0 C20 1.98 20 3.96 20 6 C15.71 6 11.42 6 7 6 C7 8.31 7 10.62 7 13 C10.96 13 14.92 13 19 13 C19 15.31 19 17.62 19 20 C15.04 20 11.08 20 7 20 C7 23.63 7 27.26 7 31 C4.69 31 2.38 31 0 31 C0 20.77 0 10.54 0 0 Z " fill="#1D1D1E" transform="translate(201,261)"/>
<path d="M0 0 C6.6 0 13.2 0 20 0 C20 1.98 20 3.96 20 6 C15.71 6 11.42 6 7 6 C7 8.31 7 10.62 7 13 C10.96 13 14.92 13 19 13 C19 14.98 19 16.96 19 19 C15.04 19 11.08 19 7 19 C7 22.96 7 26.92 7 31 C4.69 31 2.38 31 0 31 C0 20.77 0 10.54 0 0 Z " fill="#131314" transform="translate(56,261)"/>
<path d="M0 0 C7.26 0 14.52 0 22 0 C22 1.98 22 3.96 22 6 C19.69 6 17.38 6 15 6 C15 13.59 15 21.18 15 29 C12.69 29 10.38 29 8 29 C8 21.41 8 13.82 8 6 C5.36 6 2.72 6 0 6 C0 4.02 0 2.04 0 0 Z " fill="#222222" transform="translate(65,302)"/>
<path d="M0 0 C2.6604394 1.63719348 3.63370857 2.87479104 4.59765625 5.8359375 C5.394145 9.87251157 5.19457316 11.62475177 3.25 15.375 C1 18 1 18 -2 20 C-6.17763941 19.73334217 -9.00878911 18.99121089 -12 16 C-13.50065635 12.49846851 -13.39349017 8.73815657 -13 5 C-9.28222104 -0.46048784 -6.17499257 -0.8821418 0 0 Z " fill="#F2F1F1" transform="translate(131,267)"/>
<path d="M0 0 C3 2 3 2 4 5 C4.37066773 10.00401435 4.09881835 12.98301324 1 17 C-2 19 -2 19 -4.9375 18.875 C-8.62857767 17.82040638 -9.93301692 17.25947332 -12 14 C-12.74955668 9.40322896 -12.83948463 5.4690981 -10.5 1.375 C-6.76245721 -0.68064853 -4.24897256 -0.40466405 0 0 Z " fill="#F4F3F3" transform="translate(109,308)"/>
<path d="M0 0 C2.31 0 4.62 0 7 0 C7 9.57 7 19.14 7 29 C4.69 29 2.38 29 0 29 C0 19.43 0 9.86 0 0 Z " fill="#252525" transform="translate(229,302)"/>
<path d="M0 0 C7 0 7 0 9.9375 1.3125 C12.77070724 5.00425488 12.5602367 7.89444841 12.56640625 12.44140625 C12 15 12 15 10.46484375 16.77734375 C8 18 8 18 0 19 C0 12.73 0 6.46 0 0 Z " fill="#F5F5F4" transform="translate(261,267)"/>
<path d="M0 0 C0.495 1.485 0.495 1.485 1 3 C-2.0008152 4.72874472 -4.11488029 5.24122566 -7.56567383 5.1953125 C-8.46373245 5.18870605 -9.36179108 5.18209961 -10.2870636 5.17529297 C-11.25065292 5.15869629 -12.21424225 5.14209961 -13.20703125 5.125 C-14.20578781 5.11742676 -15.20454437 5.10985352 -16.23356628 5.10205078 C-20.5020253 5.06939925 -24.77009987 5.01325386 -29.03833008 4.95898438 C-32.15704562 4.92270636 -35.27569793 4.89858132 -38.39453125 4.875 C-39.8308062 4.85010498 -39.8308062 4.85010498 -41.2960968 4.82470703 C-46.6343159 4.78584635 -50.95001278 5.25616669 -56 7 C-58.75 7.75 -58.75 7.75 -61 8 C-61.99 7.34 -62.98 6.68 -64 6 C-63.195625 5.690625 -62.39125 5.38125 -61.5625 5.0625 C-59.10919595 4.23664655 -59.10919595 4.23664655 -58 3 C-56.22096643 2.87677242 -54.43713797 2.82210981 -52.65405273 2.79467773 C-50.94239174 2.7647599 -50.94239174 2.7647599 -49.19615173 2.73423767 C-47.9545076 2.71752518 -46.71286346 2.70081268 -45.43359375 2.68359375 C-43.53795433 2.6524221 -43.53795433 2.6524221 -41.60401917 2.62062073 C-38.23881367 2.56616286 -34.87359827 2.5159572 -31.50830078 2.46777344 C-28.07644099 2.41760241 -24.64467169 2.36189345 -21.21289062 2.30664062 C-14.47533239 2.19929809 -7.73770664 2.09755675 -1 2 C-0.67 1.34 -0.34 0.68 0 0 Z " fill="#3C6ADE" transform="translate(197,230)"/>
<path d="M0 0 C0 0.33 0 0.66 0 1 C-0.5576001 0.96970703 -1.1152002 0.93941406 -1.68969727 0.90820312 C-8.12485292 0.564466 -14.56114419 0.26537584 -21 0 C-21.72896484 -0.03158203 -22.45792969 -0.06316406 -23.20898438 -0.09570312 C-33.98521396 -0.51388517 -44.72649665 0.57549888 -55 4 C-55.99 3.67 -56.98 3.34 -58 3 C-52.88012619 0.59816695 -48.13844867 -0.79987764 -42.5625 -1.6875 C-41.7775415 -1.8127002 -40.99258301 -1.93790039 -40.18383789 -2.06689453 C-26.34525169 -4.11406387 -13.59896498 -2.82750757 0 0 Z " fill="#6442E0" transform="translate(190,27)"/>
<path d="M0 0 C5.41139241 -0.36075949 5.41139241 -0.36075949 7.9375 1.1875 C9 3 9 3 8.6875 5.6875 C8.460625 6.450625 8.23375 7.21375 8 8 C5.36 8 2.72 8 0 8 C0 5.36 0 2.72 0 0 Z " fill="#EDECEC" transform="translate(90,266)"/>
<path d="M0 0 C3.96 0 7.92 0 12 0 C12 1.98 12 3.96 12 6 C8.7 5.67 5.4 5.34 2 5 C2.33 4.01 2.66 3.02 3 2 C2.01 1.34 1.02 0.68 0 0 Z " fill="#1D1D1D" transform="translate(63,274)"/>
<path d="M0 0 C0.66 0 1.32 0 2 0 C2.66 3.3 3.32 6.6 4 10 C2.02 10 0.04 10 -2 10 C-1.125 2.25 -1.125 2.25 0 0 Z " fill="#D7D7D7" transform="translate(210,310)"/>
<path d="M0 0 C0.66 0.33 1.32 0.66 2 1 C-0.97 3.97 -3.94 6.94 -7 10 C-7.66 9.34 -8.32 8.68 -9 8 C-6.03 5.36 -3.06 2.72 0 0 Z " fill="#5740DF" transform="translate(98,48)"/>
<path d="M0 0 C0 0.99 0 1.98 0 3 C-1.64453125 4.421875 -1.64453125 4.421875 -3.8125 5.75 C-4.52019531 6.19859375 -5.22789063 6.6471875 -5.95703125 7.109375 C-8 8 -8 8 -11 7 C-9.54261898 6.01941648 -8.08406325 5.04057868 -6.625 4.0625 C-5.81289062 3.51722656 -5.00078125 2.97195312 -4.1640625 2.41015625 C-2 1 -2 1 0 0 Z " fill="#6348E2" transform="translate(116,36)"/>
<path d="M0 0 C0.70125 0.721875 1.4025 1.44375 2.125 2.1875 C4.92770745 4.99823813 7.92262792 7.49516226 11 10 C10.01 10.66 9.02 11.32 8 12 C6.65772954 10.57084149 5.32642904 9.13137328 4 7.6875 C3.2575 6.88699219 2.515 6.08648437 1.75 5.26171875 C0 3 0 3 0 0 Z " fill="#425DE0" transform="translate(132,164)"/>
<path d="M0 0 C0.66 0 1.32 0 2 0 C2.33 0.99 2.66 1.98 3 3 C0 5 0 5 -3.1875 4.625 C-4.115625 4.41875 -5.04375 4.2125 -6 4 C-2.25 1 -2.25 1 0 1 C0 0.67 0 0.34 0 0 Z " fill="#4A74E1" transform="translate(139,233)"/>
<path d="M0 0 C0.99 0.66 1.98 1.32 3 2 C1.35 3.65 -0.3 5.3 -2 7 C-2.66 6.67 -3.32 6.34 -4 6 C-2.68 4.02 -1.36 2.04 0 0 Z " fill="#6051E1" transform="translate(80,66)"/>
</svg>
