<svg width="1024" height="1024" viewBox="0 0 48 48" fill="none" xmlns="http://www.w3.org/2000/svg">
  <defs>
    <!-- Main gradient -->
    <linearGradient id="mainGradient" x1="0%" y1="0%" x2="100%" y2="100%">
      <stop offset="0%" style="stop-color:#8B5CF6;stop-opacity:1" />
      <stop offset="50%" style="stop-color:#3B82F6;stop-opacity:1" />
      <stop offset="100%" style="stop-color:#6366F1;stop-opacity:1" />
    </linearGradient>
    
    <!-- Accent gradient -->
    <linearGradient id="accentGradient" x1="0%" y1="0%" x2="100%" y2="100%">
      <stop offset="0%" style="stop-color:#FBBF24;stop-opacity:1" />
      <stop offset="100%" style="stop-color:#F59E0B;stop-opacity:1" />
    </linearGradient>
    
    <!-- Glow effect -->
    <filter id="glow">
      <feGaussianBlur stdDeviation="2" result="coloredBlur"/>
      <feMerge> 
        <feMergeNode in="coloredBlur"/>
        <feMergeNode in="SourceGraphic"/>
      </feMerge>
    </filter>
  </defs>
  
  <!-- Background Circle -->
  <circle cx="24" cy="24" r="18" fill="url(#mainGradient)" filter="url(#glow)"/>
  
  <!-- Central Flow -->
  <path d="M10 24 L38 24" stroke="url(#accentGradient)" stroke-width="4" stroke-linecap="round"/>
  
  <!-- Fed Symbol -->
  <g transform="translate(8, 20)">
    <rect x="0" y="0" width="6" height="8" rx="0.5" fill="white" opacity="0.9"/>
    <rect x="0" y="-1" width="6" height="1.5" rx="0.5" fill="white"/>
    <line x1="1" y1="0" x2="1" y2="8" stroke="url(#mainGradient)" stroke-width="0.5" opacity="0.6"/>
    <line x1="3" y1="0" x2="3" y2="8" stroke="url(#mainGradient)" stroke-width="0.5" opacity="0.6"/>
    <line x1="5" y1="0" x2="5" y2="8" stroke="url(#mainGradient)" stroke-width="0.5" opacity="0.6"/>
  </g>
  
  <!-- Chain Symbol -->
  <g transform="translate(34, 20)">
    <rect x="0" y="0" width="4" height="4" rx="0.5" fill="white" opacity="0.9"/>
    <rect x="0" y="4" width="4" height="4" rx="0.5" fill="white" opacity="0.7"/>
    <line x1="2" y1="4" x2="2" y2="4" stroke="url(#accentGradient)" stroke-width="1.5"/>
  </g>
  
  <!-- Knowledge Flow -->
  <g stroke="white" stroke-width="2" fill="none" opacity="0.8">
    <path d="M18 21 L22 21 M20 19 L22 21 L20 23"/>
    <path d="M26 21 L30 21 M28 19 L30 21 L28 23"/>
  </g>
  
  <!-- Audio Indicator -->
  <g transform="translate(22, 32)">
    <circle cx="2" cy="2" r="1" fill="none" stroke="white" stroke-width="1.5" opacity="0.7"/>
    <circle cx="2" cy="2" r="2.5" fill="none" stroke="white" stroke-width="1.5" opacity="0.5"/>
  </g>
</svg>